<svg width="12" height="4" viewBox="0 0 12 4" fill="none" xmlns="http://www.w3.org/2000/svg">
<g id="More Square">
<path id="More Square_2" fill-rule="evenodd" clip-rule="evenodd" d="M1.5208 3.19749C0.8598 3.19749 0.3228 2.66049 0.3228 2.00049C0.3228 1.34049 0.8598 0.80249 1.5208 0.80249C2.1818 0.80249 2.7188 1.34049 2.7188 2.00049C2.7188 2.66049 2.1818 3.19749 1.5208 3.19749ZM6.0002 3.19749C5.3392 3.19749 4.8022 2.66049 4.8022 2.00049C4.8022 1.34049 5.3392 0.80249 6.0002 0.80249C6.6612 0.80249 7.1982 1.34049 7.1982 2.00049C7.1982 2.66049 6.6612 3.19749 6.0002 3.19749ZM9.2812 2.00049C9.2812 2.66049 9.8182 3.19749 10.4792 3.19749C11.1402 3.19749 11.6772 2.66049 11.6772 2.00049C11.6772 1.34049 11.1402 0.80249 10.4792 0.80249C9.8182 0.80249 9.2812 1.34049 9.2812 2.00049Z" fill="#2E2E5D"/>
</g>
</svg>
