<svg width="19" height="20" viewBox="0 0 19 20" fill="none" xmlns="http://www.w3.org/2000/svg">
<g id="Volume Off">
<path id="Volume Off_2" fill-rule="evenodd" clip-rule="evenodd" d="M18.5259 0.763615C18.233 0.470722 17.7582 0.470722 17.4653 0.763615L12.5766 5.65232C12.5693 5.54231 12.5608 5.4451 12.5506 5.35293L12.4908 4.90557L12.389 3.99697C12.3382 3.56335 12.2886 3.2645 12.21 2.96125C11.8561 1.77845 10.9039 1.00345 9.8102 1.03708L9.65506 1.04327C9.17169 1.09024 8.54018 1.38594 8.11817 1.74472L4.62296 4.60293L2.77831 4.6039L2.60108 4.60968C1.31687 4.69412 0.379179 5.69423 0.193135 7.0292C-0.00168498 8.5986 -0.00793475 11.2082 0.193218 12.6432C0.373846 14.139 1.36321 15.1325 2.77831 15.1325H3.09641L0.317638 17.9113L0.24502 17.9954C0.0271652 18.289 0.0513713 18.7057 0.317638 18.9719C0.610531 19.2648 1.0854 19.2648 1.3783 18.9719L18.5259 1.82428L18.5986 1.74016C18.8164 1.44655 18.7922 1.02988 18.5259 0.763615ZM4.59641 13.6325L11.112 7.11688L11.0985 6.17085C11.0901 5.8795 11.0782 5.68876 11.0606 5.52599L10.9749 4.86645L10.9233 4.38639C10.87 3.89231 10.8262 3.60089 10.7655 3.36469C10.6048 2.82845 10.2318 2.52482 9.817 2.53655C9.71033 2.53423 9.39581 2.66674 9.16955 2.8267L9.07885 2.89663L5.36555 5.9344C5.25836 6.02209 5.12954 6.07795 4.99366 6.09679L4.89066 6.1039H2.77831C2.20494 6.1039 1.776 6.53858 1.68025 7.22508C1.50251 8.65748 1.49658 11.1358 1.68054 12.4491C1.77 13.1894 2.11447 13.5787 2.65866 13.6273L2.77831 13.6325H4.59641ZM11.8705 11.4414C12.2847 11.4473 12.6157 11.7879 12.6098 12.2021L12.5932 13.0252C12.5726 13.7858 12.5402 14.361 12.4965 14.7702L12.3827 15.8275C12.3371 16.2104 12.2886 16.4774 12.2025 16.8005C11.8564 17.957 10.9043 18.7315 9.85182 18.698C9.37517 18.7098 8.80464 18.4945 8.36606 18.1774L8.20822 18.0539L6.81163 16.9146C6.49067 16.6528 6.44273 16.1803 6.70457 15.8594C6.94259 15.5676 7.35469 15.5015 7.66879 15.6886L7.75981 15.7523L9.16702 16.9004C9.3685 17.0711 9.68075 17.2017 9.8563 17.1985C10.2323 17.2101 10.6049 16.907 10.7591 16.3928L10.8134 16.1637C10.8375 16.0474 10.8577 15.9248 10.877 15.7785L10.9927 14.7174C11.0515 14.2442 11.0924 13.4107 11.1099 12.1807C11.1158 11.7665 11.4564 11.4355 11.8705 11.4414Z" fill="#2E2E5D"/>
</g>
</svg>
