<svg width="34" height="34" viewBox="0 0 34 34" fill="none" xmlns="http://www.w3.org/2000/svg">
<g id="Arrow - Right Circle">
<path id="Arrow - Right Circle_2" fill-rule="evenodd" clip-rule="evenodd" d="M0.333332 16.9998C0.333332 26.2046 7.79576 33.6665 17 33.6665C26.2042 33.6665 33.6667 26.2046 33.6667 16.9998C33.6667 7.79615 26.2037 0.333168 17 0.333168C7.79631 0.333168 0.333332 7.79615 0.333332 16.9998ZM2.83333 16.9998C2.83333 9.17686 9.17702 2.83317 17 2.83317C24.823 2.83317 31.1667 9.17686 31.1667 16.9998C31.1667 24.8239 24.8236 31.1665 17 31.1665C9.17642 31.1665 2.83333 24.8239 2.83333 16.9998ZM13.5928 22.0393C13.2287 22.5279 13.2675 23.2224 13.7103 23.6671C14.1974 24.1563 14.9889 24.1581 15.4781 23.671L21.2881 17.886L21.4097 17.7456C21.7747 17.2555 21.7342 16.5585 21.2881 16.1144L15.4781 10.3294L15.3376 10.2086C14.8475 9.84661 14.1531 9.88845 13.7103 10.3332L13.5896 10.4736C13.2276 10.9638 13.2694 11.6581 13.7141 12.101L18.6333 17.0018L13.7141 21.8994L13.5928 22.0393Z" fill="#2E2E5D"/>
</g>
</svg>
