<svg width="18" height="20" viewBox="0 0 18 20" fill="none" xmlns="http://www.w3.org/2000/svg">
<g id="Paper">
<path id="Paper_2" fill-rule="evenodd" clip-rule="evenodd" d="M11.6067 0.0119441C11.5637 0.00425618 11.5193 0.000244141 11.4741 0.000244141C11.4288 0.000244141 11.3844 0.00425618 11.3414 0.0119441H5.08376C2.59646 0.0119441 0.499756 2.02977 0.499756 4.49094V15.2039C0.499756 17.8045 2.50435 19.8649 5.08376 19.8649H13.0728C15.5261 19.8649 17.5518 17.703 17.5518 15.2039V6.03794C17.5518 5.84433 17.4769 5.65821 17.3428 5.51854L12.2778 0.242543C12.1364 0.095222 11.941 0.0119441 11.7368 0.0119441H11.6067ZM10.7241 1.51114L5.08376 1.51194C3.41229 1.51194 1.99976 2.87134 1.99976 4.49094V15.2039C1.99976 16.9852 3.34214 18.3649 5.08376 18.3649H13.0728C14.675 18.3649 16.0518 16.8956 16.0518 15.2039L16.0511 6.98333L15.1756 6.98631C14.842 6.98591 14.4625 6.9852 14.0405 6.98424C12.2709 6.9805 10.8268 5.59353 10.7293 3.84763L10.7241 3.65924V1.51114ZM15.2303 5.48408L14.0438 5.48425C13.0383 5.48212 12.2241 4.6657 12.2241 3.65924V2.35269L15.2303 5.48408ZM11.2841 12.8078C11.6983 12.8078 12.0341 13.1436 12.0341 13.5578C12.0341 13.9375 11.7519 14.2513 11.3858 14.301L11.2841 14.3078H5.88706C5.47284 14.3078 5.13706 13.9721 5.13706 13.5578C5.13706 13.1781 5.41921 12.8644 5.78528 12.8147L5.88706 12.8078H11.2841ZM9.99256 8.60564C9.99256 8.19143 9.65677 7.85564 9.24256 7.85564H5.88656L5.78479 7.86249C5.41871 7.91215 5.13656 8.22595 5.13656 8.60564C5.13656 9.01986 5.47234 9.35564 5.88656 9.35564H9.24256L9.34433 9.3488C9.7104 9.29914 9.99256 8.98534 9.99256 8.60564Z" fill="#2E2E5D"/>
</g>
</svg>
