<svg width="21" height="20" viewBox="0 0 21 20" fill="none" xmlns="http://www.w3.org/2000/svg">
<g id="Play">
<path id="Play_2" fill-rule="evenodd" clip-rule="evenodd" d="M10.5 0C4.97716 0 0.5 4.47716 0.5 10C0.5 15.5228 4.97716 20 10.5 20C16.0228 20 20.5 15.5228 20.5 10C20.5 4.47716 16.0228 0 10.5 0ZM10.5 1.39535C15.2522 1.39535 19.1047 5.24779 19.1047 10C19.1047 14.7522 15.2522 18.6047 10.5 18.6047C5.74779 18.6047 1.89535 14.7522 1.89535 10C1.89535 5.24779 5.74779 1.39535 10.5 1.39535ZM9.37145 6.05454L9.2674 6.04465C9.07034 6.03789 8.86707 6.08735 8.68787 6.18402C8.45592 6.30819 8.26869 6.50941 8.16488 6.75855C8.11716 6.87387 8.03465 7.22989 7.99754 7.43665C7.90434 7.94479 7.85014 8.72626 7.84096 9.58384L7.83957 9.87225C7.83859 10.7822 7.88883 11.6482 7.98166 12.2189L8.03256 12.4811C8.08323 12.7142 8.15054 12.9626 8.20449 13.0673C8.41027 13.4649 8.8289 13.7104 9.27382 13.6963C9.46356 13.6921 9.86218 13.5596 10.1394 13.4432C11.1376 13.0232 12.8957 11.8463 13.708 11.0528L13.9777 10.772C14.081 10.6617 14.1275 10.6104 14.1668 10.5567C14.3137 10.357 14.3903 10.1158 14.3903 9.87153C14.3903 9.61205 14.3048 9.35868 14.1418 9.15198L14.0621 9.05983L13.8385 8.82111C13.0715 8.00364 11.0645 6.65585 10.0392 6.2575C9.81374 6.16838 9.55946 6.08299 9.37145 6.05454ZM9.40601 7.51163L9.53016 7.55666C10.3166 7.86225 11.9854 8.96984 12.6974 9.65151L12.9093 9.86977L12.829 9.9564C12.2353 10.5965 10.4821 11.7852 9.59882 12.1568L9.40694 12.227L9.35847 11.9922C9.28892 11.5646 9.24468 10.8877 9.23634 10.151L9.23492 9.87229C9.2341 9.06877 9.27514 8.31898 9.34583 7.83642L9.37978 7.63756L9.40601 7.51163Z" fill="#2E2E5D"/>
</g>
</svg>
