<svg width="34" height="34" viewBox="0 0 34 34" fill="none" xmlns="http://www.w3.org/2000/svg">
<g id="Arrow - Left Circle">
<path id="Arrow - Left Circle_2" fill-rule="evenodd" clip-rule="evenodd" d="M33.6667 17.0002C33.6667 7.79536 26.2042 0.333496 17 0.333496C7.79576 0.333496 0.333336 7.79536 0.333336 17.0002C0.333336 26.2039 7.79631 33.6668 17 33.6668C26.2037 33.6668 33.6667 26.2039 33.6667 17.0002ZM31.1667 17.0002C31.1667 24.8231 24.823 31.1668 17 31.1668C9.17702 31.1668 2.83333 24.8231 2.83333 17.0002C2.83333 9.17612 9.17643 2.8335 17 2.8335C24.8236 2.8335 31.1667 9.17612 31.1667 17.0002ZM20.4072 11.9607C20.7713 11.4721 20.7325 10.7776 20.2897 10.3329C19.8026 9.84365 19.0111 9.84195 18.5219 10.329L12.7119 16.114L12.5903 16.2544C12.2253 16.7445 12.2658 17.4415 12.7119 17.8856L18.5219 23.6706L18.6624 23.7913C19.1525 24.1534 19.8469 24.1115 20.2897 23.6668L20.4104 23.5264C20.7724 23.0362 20.7306 22.3419 20.2859 21.899L15.3667 16.9982L20.2859 12.1006L20.4072 11.9607Z" fill="#2E2E5D"/>
</g>
</svg>
