<svg width="17" height="20" viewBox="0 0 17 20" fill="none" xmlns="http://www.w3.org/2000/svg">
<g id="Profile">
<path id="Profile_2" fill-rule="evenodd" clip-rule="evenodd" d="M8.50429 0C5.57027 0 3.19177 2.38864 3.19177 5.33517C3.19177 8.28171 5.57027 10.6703 8.50429 10.6703C11.4383 10.6703 13.8168 8.28171 13.8168 5.33517C13.8168 2.38864 11.4383 0 8.50429 0ZM8.50429 1.44767C10.6422 1.44767 12.3753 3.18816 12.3753 5.33517C12.3753 7.48218 10.6422 9.22268 8.50429 9.22268C6.3664 9.22268 4.63329 7.48218 4.63329 5.33517C4.63329 3.18816 6.3664 1.44767 8.50429 1.44767ZM6.33005 12.8209C5.55233 12.8749 4.76621 12.9859 3.9908 13.1521C2.49418 13.4604 1.29685 14.0763 0.787239 15.0999C0.595027 15.5002 0.49839 15.9288 0.50002 16.3627C0.499444 16.7935 0.595299 17.2227 0.780618 17.6153C1.26994 18.6271 2.3278 19.1997 3.75624 19.5171L4.01213 19.5705C4.76648 19.7407 5.55284 19.8553 6.34446 19.909C6.41189 19.9288 6.57258 19.9472 6.74796 19.9561L6.89222 19.9615C6.96639 19.9633 7.05058 19.9637 7.17601 19.9637C8.31384 20.0263 9.49342 20.0081 10.6675 19.9081C11.2932 19.8653 11.9231 19.7835 12.5477 19.6636L13.0151 19.5666C14.5576 19.2623 15.7126 18.6836 16.2186 17.6164C16.5937 16.8241 16.5937 15.9047 16.2188 15.1127C15.714 14.0483 14.5737 13.4744 13.0034 13.1509C12.3873 13.0194 11.7612 12.922 11.1307 12.8599L10.6697 12.8209C9.22593 12.6935 7.77382 12.6935 6.33005 12.8209ZM10.5436 14.263L10.5562 14.264C11.2799 14.3149 11.9991 14.4165 12.7087 14.568C13.8751 14.8083 14.6667 15.2067 14.9171 15.7348C15.1057 16.133 15.1057 16.5958 14.9169 16.9944C14.6829 17.4879 13.972 17.8691 12.9445 18.1021L12.7195 18.1498C11.996 18.3112 11.2791 18.4152 10.5576 18.4647C9.43793 18.5599 8.32495 18.5771 7.21477 18.5171L6.82116 18.5103C6.7119 18.5048 6.61981 18.4942 6.53447 18.4771C5.85872 18.4261 5.25066 18.3454 4.66027 18.2283L4.30775 18.1537C3.13771 17.9244 2.33915 17.5243 2.08024 16.989C1.98964 16.797 1.94125 16.5803 1.94154 16.3609C1.94073 16.1428 1.98848 15.931 2.08118 15.7379C2.33293 15.2324 3.17919 14.7971 4.28605 14.569C5.00073 14.4159 5.71962 14.3144 6.44294 14.264C7.81603 14.143 9.18372 14.143 10.5436 14.263Z" fill="#0F0F29"/>
</g>
</svg>
