<svg width="21" height="21" viewBox="0 0 21 21" fill="none" xmlns="http://www.w3.org/2000/svg">
    <g id="Upload">
        <path id="Upload_2" fill-rule="evenodd" clip-rule="evenodd"
            d="M0.0214996 11.669C0.0214996 9.28979 1.89543 7.34788 4.24774 7.23886L4.4565 7.23403H5.3895C5.80371 7.23403 6.1395 7.56981 6.1395 7.98403C6.1395 8.36372 5.85735 8.67752 5.49127 8.72718L5.3895 8.73403H4.4565C2.8936 8.73403 1.61576 9.95605 1.52648 11.4966L1.5215 11.669L1.5215 16.544C1.5215 18.1061 2.74363 19.3838 4.28408 19.473L4.4565 19.478H15.5865C17.1493 19.478 18.4272 18.2561 18.5165 16.7164L18.5215 16.544V11.659C18.5215 10.1017 17.3039 8.82799 15.7693 8.73899L15.5975 8.73403H14.6545C14.2403 8.73403 13.9045 8.39824 13.9045 7.98403C13.9045 7.60433 14.1867 7.29054 14.5527 7.24087L14.6545 7.23403H15.5975C17.9687 7.23403 19.9046 9.10083 20.0164 11.4447L20.0215 11.659V16.544C20.0215 18.9225 18.1474 20.8642 15.7952 20.9732L15.5865 20.978H4.4565C2.07744 20.978 0.135362 19.1043 0.0263277 16.7527L0.0214996 16.544L0.0214996 11.669ZM9.47967 0.671843C9.6162 0.529293 9.80843 0.440527 10.0214 0.440527C10.2365 0.440527 10.4304 0.531071 10.5672 0.676123L13.4687 3.58959C13.761 3.88308 13.76 4.35795 13.4665 4.65025C13.1997 4.91596 12.783 4.93932 12.4899 4.72086L12.4059 4.64807L10.7714 3.008L10.7714 13.2315C10.7714 13.6457 10.4356 13.9815 10.0214 13.9815C9.6417 13.9815 9.32791 13.6994 9.27825 13.3333L9.2714 13.2315L9.2714 3.00632L7.63781 4.64798C7.37214 4.91483 6.95553 4.93997 6.66143 4.72277L6.57715 4.65034C6.31029 4.38466 6.28516 3.96805 6.50236 3.67396L6.57479 3.58968L9.47967 0.671843Z"
            fill="#2E2E5D" />
    </g>
</svg>